HIERARCHY
ROOT Hips
{
	OFFSET 0.000000 0.000000 0.000000
	CHANNELS 6 Xposition Yposition Zposition Xrotation Yrotation Zrotation
	JOINT LeftUpLeg_virtual
	{
		OFFSET 0.000000 0.000000 0.000000
		CHANNELS 3 Xrotation Yrotation Zrotation
		JOINT LeftUpLeg
		{
			OFFSET 10.205400 -3.823500 0.155100
			CHANNELS 3 Xrotation Yrotation Zrotation
			JOINT LeftLeg
			{
				OFFSET 0.708757 -12.982077 0.567790
				CHANNELS 3 Xrotation Yrotation Zrotation
				JOINT LeftFoot
				{
					OFFSET -0.708756 -10.717838 -2.184338
					CHANNELS 3 Xrotation Yrotation Zrotation
					JOINT LeftToeBase
					{
						OFFSET 0.108149 -7.191104 7.560241
						CHANNELS 3 Xrotation Yrotation Zrotation
						JOINT LeftToe_End
						{
							OFFSET 0.070230 0.081724 4.490308
							CHANNELS 3 Xrotation Yrotation Zrotation
							End Site
							{
								OFFSET 0 0 0
							}
						}
					}
				}
			}
		}
	}
	JOINT RightUpLeg_virtual
	{
		OFFSET 0.000000 0.000000 0.000000
		CHANNELS 3 Xrotation Yrotation Zrotation
		JOINT RightUpLeg
		{
			OFFSET -10.205400 -3.823500 0.005500
			CHANNELS 3 Xrotation Yrotation Zrotation
			JOINT RightLeg
			{
				OFFSET -0.708756 -12.982134 0.610632
				CHANNELS 3 Xrotation Yrotation Zrotation
				JOINT RightFoot
				{
					OFFSET 0.708754 -10.717769 -1.945823
					CHANNELS 3 Xrotation Yrotation Zrotation
					JOINT RightToeBase
					{
						OFFSET -0.108140 -7.191069 7.372968
						CHANNELS 3 Xrotation Yrotation Zrotation
						JOINT RightToe_End
						{
							OFFSET -0.070227 0.081735 4.479403
							CHANNELS 3 Xrotation Yrotation Zrotation
							End Site
							{
								OFFSET 0 0 0
							}
						}
					}
				}
			}
		}
	}
	JOINT Spine_virtual
	{
		OFFSET 0.000000 0.000000 0.000000
		CHANNELS 3 Xrotation Yrotation Zrotation
		JOINT Spine
		{
			OFFSET 0.000000 6.876099 0.125700
			CHANNELS 3 Xrotation Yrotation Zrotation
			JOINT Spine1
			{
				OFFSET 0.000000 5.730043 0.104720
				CHANNELS 3 Xrotation Yrotation Zrotation
				JOINT Spine1_split
				{
					OFFSET 0.000000 5.730043 0.104720
					CHANNELS 3 Xrotation Yrotation Zrotation
					JOINT Spine2
					{
						OFFSET 0.000000 5.730043 0.104720
						CHANNELS 3 Xrotation Yrotation Zrotation
						JOINT Neck_virtual
						{
							OFFSET 0.000000 0.000000 0.000000
							CHANNELS 3 Xrotation Yrotation Zrotation
							JOINT Neck
							{
								OFFSET 0.000000 10.314075 0.188496
								CHANNELS 3 Xrotation Yrotation Zrotation
								JOINT Head
								{
									OFFSET 0.000000 7.643700 -2.377400
									CHANNELS 3 Xrotation Yrotation Zrotation
									JOINT HeadTop_End
									{
										OFFSET 0.000000 43.788605 -13.619600
										CHANNELS 3 Xrotation Yrotation Zrotation
										End Site
										{
											OFFSET 0 0 0
										}
									}
								}
							}
						}
						JOINT LeftShoulder_virtual
						{
							OFFSET 0.000000 0.000000 0.000000
							CHANNELS 3 Xrotation Yrotation Zrotation
							JOINT LeftShoulder
							{
								OFFSET 2.196100 4.412489 0.087492
								CHANNELS 3 Xrotation Yrotation Zrotation
								JOINT LeftShoulder_split
								{
									OFFSET 2.196100 4.412489 0.087492
									CHANNELS 3 Xrotation Yrotation Zrotation
									JOINT LeftArm
									{
										OFFSET 8.771219 -2.981674 -0.026999
										CHANNELS 3 Xrotation Yrotation Zrotation
										JOINT LeftForeArm
										{
											OFFSET 8.512804 0.000000 -0.000000
											CHANNELS 3 Xrotation Yrotation Zrotation
											JOINT LeftHand
											{
												OFFSET 18.484802 0.000000 -0.000000
												CHANNELS 3 Xrotation Yrotation Zrotation
												End Site
												{
													OFFSET 0 0 0
												}
											}
										}
									}
								}
							}
						}
						JOINT RightShoulder_virtual
						{
							OFFSET 0.000000 0.000000 0.000000
							CHANNELS 3 Xrotation Yrotation Zrotation
							JOINT RightShoulder
							{
								OFFSET -2.196100 4.412496 0.070690
								CHANNELS 3 Xrotation Yrotation Zrotation
								JOINT RightShoulder_split
								{
									OFFSET -2.196100 4.412496 0.070690
									CHANNELS 3 Xrotation Yrotation Zrotation
									JOINT RightArm
									{
										OFFSET -8.771282 -2.981682 -0.094208
										CHANNELS 3 Xrotation Yrotation Zrotation
										JOINT RightForeArm
										{
											OFFSET -8.494598 0.000000 0.000000
											CHANNELS 3 Xrotation Yrotation Zrotation
											JOINT RightHand
											{
												OFFSET -18.483803 0.000000 0.000001
												CHANNELS 3 Xrotation Yrotation Zrotation
												End Site
												{
													OFFSET 0 0 0
												}
											}
										}
									}
								}
							}
						}
					}
				}
			}
		}
	}
}
MOTION
Frames: 10
Frame Time: 0.03333333
-0.053854 27.724840 0.665697 0.000000 0.000000 0.000000 11.523705 -51.282560 10.571745 -66.498619 24.190240 42.257588 44.332309 -18.372292 2.553249 5.111271 -7.358644 -13.112591 -10.208155 -8.496538 1.391509 0.000000 0.000000 0.000000 12.220554 -51.825819 11.105864 -19.646817 -4.444875 -32.134640 40.617520 12.638767 -11.266757 -37.828084 -11.021678 31.856252 1.698614 9.511417 3.791275 0.000000 0.000000 0.000000 13.406572 -45.606689 10.600030 6.154286 3.815765 -4.612593 6.735234 7.253827 -4.804530 0.179769 -2.173448 0.371659 0.000000 0.000000 0.000000 -3.338387 7.162077 -3.294165 -0.269956 13.841325 -1.710816 -2.047441 19.554589 -2.579691 0.000000 0.000000 0.000000 -4.307862 6.498409 -2.864681 -0.214677 -14.197159 0.593211 -2.186462 -2.457791 0.294172 -20.721621 1.220566 -48.703968 -20.106661 -13.160699 -9.289257 0.000000 0.000000 0.000000 -5.044950 6.547018 -2.542745 -0.641771 19.205047 -1.250322 -5.099710 -5.309078 7.175845 -1.066229 -22.274302 54.542196 -23.089180 43.575490 24.077776 0.000000 0.000000 0.000000 
0.181671 27.842308 0.693779 0.000000 0.000000 0.000000 11.738392 -51.471759 10.942439 -65.920833 23.133335 41.014429 44.117947 -18.804737 2.090186 5.164740 -6.412777 -13.129901 -8.021748 -8.288116 0.678237 0.000000 0.000000 0.000000 12.276859 -52.466532 11.594989 -19.722887 -4.757630 -31.989454 40.677376 12.106795 -11.027440 -37.906805 -10.815091 29.909067 2.665706 9.453845 4.349902 0.000000 0.000000 0.000000 13.252722 -45.719398 10.453803 6.108374 3.839769 -4.794224 6.745429 7.254090 -4.942071 0.019534 -2.097979 0.484176 0.000000 0.000000 0.000000 -3.524417 7.164636 -3.338075 -0.335447 14.385195 -2.432997 -1.734283 19.977540 -3.062760 0.000000 0.000000 0.000000 -4.426364 6.522304 -2.930634 -0.340137 -13.853586 0.254826 -2.682943 -2.362842 0.355104 -20.070586 1.761315 -47.969750 -20.171611 -13.464968 -9.592044 0.000000 0.000000 0.000000 -4.938092 6.544611 -2.692199 -0.559737 19.171340 -0.799142 -6.720119 -4.457522 6.726730 -1.488571 -23.705082 54.120804 -23.190861 43.744821 24.552874 0.000000 0.000000 0.000000 
0.474775 28.044403 0.612707 0.000000 0.000000 0.000000 11.947661 -53.111462 11.650180 -64.411512 22.096681 40.340733 42.975666 -18.923686 1.289159 5.123351 -4.716323 -15.018382 -4.885436 -8.003677 0.118964 0.000000 0.000000 0.000000 12.261843 -54.565910 12.378555 -21.156719 -4.671046 -31.305492 40.532542 12.302264 -10.473573 -37.124329 -10.008500 27.573301 3.241961 9.526629 4.109108 0.000000 0.000000 0.000000 13.154665 -47.536378 10.747101 6.629200 3.654105 -4.905450 6.934659 7.203819 -5.179336 -0.089602 -2.144137 0.800450 0.000000 0.000000 0.000000 -3.511494 7.088758 -3.513763 -0.587091 15.105102 -3.422677 -1.426512 20.451762 -4.299540 0.000000 0.000000 0.000000 -4.416175 6.547466 -3.139554 -0.552586 -13.002386 -0.978272 -3.227767 -2.589519 0.359771 -19.685005 2.853837 -47.023301 -18.911911 -14.161817 -9.312560 0.000000 0.000000 0.000000 -4.679662 6.551727 -2.968113 -0.484524 18.614197 -0.099175 -7.851361 -4.203607 6.041132 -2.646087 -23.569048 52.299687 -24.036209 45.082848 26.111651 0.000000 0.000000 0.000000 
0.748608 28.219397 0.412743 0.000000 0.000000 0.000000 12.294101 -56.440551 12.770913 -62.220107 21.555218 40.685914 41.219440 -18.472482 0.228752 5.119749 -2.332040 -18.043982 -2.379287 -7.681249 -0.061608 0.000000 0.000000 0.000000 12.512758 -58.267961 13.587509 -24.234269 -4.246074 -29.995401 40.794947 13.276558 -9.615537 -34.742478 -8.537476 25.532156 2.697971 9.591087 3.342493 0.000000 0.000000 0.000000 13.126134 -51.134034 11.521023 7.511163 3.215931 -4.917618 7.236984 7.016174 -5.470760 -0.195254 -2.258390 1.415933 0.000000 0.000000 0.000000 -3.260576 6.908965 -3.791145 -0.908676 16.074790 -4.661106 -1.252832 20.931946 -6.082875 0.000000 0.000000 0.000000 -4.276640 6.499189 -3.476139 -0.766252 -11.724162 -2.873064 -3.480243 -2.962226 0.207728 -19.545073 4.177201 -46.113035 -16.394505 -14.466474 -8.397399 0.000000 0.000000 0.000000 -4.381662 6.457698 -3.333395 -0.391539 17.455267 0.666682 -8.238650 -4.220625 5.418746 -3.943394 -21.342319 49.248054 -25.478105 47.601825 28.624805 0.000000 0.000000 0.000000 
0.950802 28.297522 0.085056 0.000000 0.000000 0.000000 13.418078 -61.352400 14.654557 -59.703469 22.144079 42.284632 39.733570 -16.648420 -0.874296 4.097180 1.152225 -20.015408 -1.030325 -7.362586 0.075675 0.000000 0.000000 0.000000 13.378235 -63.197145 15.326956 -28.526533 -3.842922 -27.741780 41.067113 15.005512 -8.612447 -30.740431 -6.543901 24.079811 0.734202 9.531987 2.322020 0.000000 0.000000 0.000000 13.617815 -56.189583 12.968008 8.599420 2.513404 -4.744376 7.634250 6.623469 -5.778871 -0.327104 -2.543070 1.968371 0.000000 0.000000 0.000000 -2.856646 6.581062 -4.106617 -1.183889 17.261855 -6.007464 -1.291125 21.286935 -8.154688 0.000000 0.000000 0.000000 -4.028466 6.279318 -3.900919 -0.905111 -10.138260 -4.938637 -3.455162 -3.237629 -0.139790 -19.330236 5.468866 -45.355079 -13.069496 -14.133785 -7.096027 0.000000 0.000000 0.000000 -4.089657 6.164348 -3.742149 -0.267861 15.734125 1.304258 -7.743223 -4.242384 4.767483 -4.786498 -17.137334 45.405523 -27.329774 51.003389 31.858352 0.000000 0.000000 0.000000 
1.115429 28.247993 -0.212193 0.000000 0.000000 0.000000 16.049367 -67.393613 17.802157 -57.127678 23.931513 44.940401 39.175342 -13.418904 -1.622922 1.271470 5.493354 -19.989527 -0.901655 -6.969651 0.281520 0.000000 0.000000 0.000000 15.657041 -69.033624 18.186637 -33.284611 -3.580108 -24.416844 41.159502 17.268197 -7.675894 -26.297106 -4.217405 22.730571 -1.581883 9.318290 1.310196 0.000000 0.000000 0.000000 15.202010 -62.492310 15.455584 9.771176 1.554510 -4.378343 8.076998 5.980174 -6.063440 -0.481114 -3.094365 2.067520 0.000000 0.000000 0.000000 -2.415517 6.024796 -4.392722 -1.381206 18.605748 -7.265419 -1.633791 21.443567 -10.225942 0.000000 0.000000 0.000000 -3.676326 5.779763 -4.359464 -0.926166 -8.333556 -6.667865 -3.020506 -3.010428 -0.482343 -18.689735 6.693108 -44.836319 -9.468080 -13.397335 -5.761613 0.000000 0.000000 0.000000 -3.774556 5.578908 -4.157677 -0.107073 13.545358 1.516757 -6.551027 -4.164707 4.146163 -4.976884 -11.474812 41.093427 -29.479291 54.789230 35.591945 0.000000 0.000000 0.000000 
1.227654 28.149782 -0.575977 0.000000 0.000000 0.000000 21.844796 -73.748879 23.853316 -55.102104 26.555376 48.464256 39.578214 -9.458299 -1.823805 -3.434801 9.741872 -18.779301 -1.435448 -6.381006 0.090077 0.000000 0.000000 0.000000 20.994185 -75.092336 23.774538 -37.613893 -3.647975 -20.128791 40.978102 19.511878 -6.776846 -22.776504 -1.730107 20.268983 -2.199398 9.050389 0.467465 0.000000 0.000000 0.000000 19.228603 -69.173041 19.999409 10.991883 0.449316 -3.844803 8.563302 5.075826 -6.270845 -0.633570 -3.465619 1.764290 0.000000 0.000000 0.000000 -1.994382 5.228981 -4.604937 -1.333268 19.938821 -8.284887 -2.381063 21.490449 -12.123524 0.000000 0.000000 0.000000 -3.144863 4.956429 -4.761738 -0.817497 -6.337105 -7.769948 -2.445360 -2.380764 -0.936536 -17.098544 7.898347 -44.566223 -6.045634 -12.888175 -4.718858 0.000000 0.000000 0.000000 -3.432825 4.686997 -4.529638 0.054127 10.897699 1.234511 -5.039728 -4.067551 3.413569 -4.819447 -5.361645 36.462914 -32.627390 58.786755 40.279323 0.000000 0.000000 0.000000 
1.278085 28.072584 -0.926691 0.000000 0.000000 0.000000 35.127929 -79.333986 37.124141 -53.964010 29.470928 52.489577 40.554030 -5.393187 -1.529780 -9.311149 12.745393 -17.387695 -2.900674 -5.553875 -0.345048 0.000000 0.000000 0.000000 33.925078 -80.401872 36.646502 -41.242284 -3.844759 -15.137610 40.359858 21.341064 -5.813473 -20.484407 0.642449 16.646610 -0.848822 8.715564 -0.198953 0.000000 0.000000 0.000000 28.793069 -75.080950 29.625553 12.189699 -0.766269 -3.248515 9.120596 3.939569 -6.404607 -0.689589 -3.430709 1.344201 0.000000 0.000000 0.000000 -1.581768 4.160615 -4.739038 -0.822390 21.000723 -8.875885 -3.429249 21.629389 -13.804837 0.000000 0.000000 0.000000 -2.380888 3.860195 -5.049494 -0.625937 -4.282453 -8.081140 -1.783362 -1.863121 -1.166814 -14.338599 9.037450 -44.496596 -3.066419 -13.943684 -4.200183 0.000000 0.000000 0.000000 -2.952189 3.538314 -4.829462 0.183337 8.096353 0.450097 -3.599697 -4.047206 2.795586 -4.762479 -0.041340 31.642880 -38.408274 62.958553 47.362482 0.000000 0.000000 0.000000 
1.293053 28.047726 -1.250261 0.000000 0.000000 0.000000 63.922818 -82.550759 65.646669 -54.155402 31.978884 56.624263 41.857875 -2.014390 -0.854415 -14.531183 13.793519 -17.071650 -4.630119 -4.456011 -0.796122 0.000000 0.000000 0.000000 68.422725 -83.744642 70.871183 -44.637410 -3.708064 -10.285625 39.625257 23.036719 -4.822983 -18.633238 2.942641 13.478972 0.306342 8.303431 -0.797602 0.000000 0.000000 0.000000 48.934361 -79.063968 49.520579 13.245988 -2.071717 -2.752338 9.763896 2.618161 -6.475016 -0.504120 -3.171894 1.068272 0.000000 0.000000 0.000000 -1.048926 2.855060 -4.833256 0.451609 21.728587 -8.901530 -4.641394 22.243657 -15.247284 0.000000 0.000000 0.000000 -1.401417 2.550243 -5.235098 -0.429387 -2.466046 -7.653660 -1.165619 -1.682253 -1.065124 -11.017333 10.113237 -44.428386 -0.510597 -17.176889 -4.212990 0.000000 0.000000 0.000000 -2.266604 2.174213 -5.056922 0.247644 5.377801 -0.630087 -2.344335 -4.330070 2.263680 -4.996433 3.654624 26.699648 -49.194509 66.784312 59.135887 0.000000 0.000000 0.000000 
1.189738 28.126915 -1.511717 0.000000 0.000000 0.000000 97.370514 -82.035558 98.647015 -55.875015 33.783526 60.498626 43.642931 0.870735 -0.078014 -18.070582 13.142876 -17.444928 -4.272793 -3.183157 -1.830697 0.000000 0.000000 0.000000 109.855362 -82.642618 111.876422 -47.855020 -3.123076 -6.317460 38.965454 24.767342 -3.954494 -16.248793 5.169144 12.079445 -0.522877 7.822572 -1.397952 0.000000 0.000000 0.000000 76.402325 -79.749740 76.542556 14.092180 -3.402189 -2.454074 10.504659 1.198802 -6.549863 -0.207070 -2.805601 0.998756 0.000000 0.000000 0.000000 -0.255613 1.439223 -4.952476 2.713968 22.152798 -8.421822 -5.884913 23.444131 -16.514644 0.000000 0.000000 0.000000 -0.248285 1.124265 -5.380714 -0.270139 -1.200434 -6.687783 -0.408294 -2.052912 -0.706746 -7.973489 11.258135 -43.927088 1.615007 -22.423263 -4.722415 0.000000 0.000000 0.000000 -1.405393 0.695206 -5.248477 0.282569 3.015723 -1.630883 -0.991812 -4.854679 2.071185 -5.342671 5.376676 21.844921 -64.813899 68.824012 75.464288 0.000000 0.000000 0.000000 
